<svg xmlns="http://www.w3.org/2000/svg" viewBox="0 0 140 140" width="140" height="140">
  <circle cx="65" cy="65" r="44" fill="#E65C00"/>
  <circle cx="65" cy="65" r="40" fill="#FF8C00"/>
  <ellipse cx="65" cy="75" rx="28" ry="20" fill="#FFD700" fill-opacity="0.8"/>
  <line x1="65" y1="21" x2="65" y2="8" stroke="#CC5500" stroke-width="2.5" stroke-linecap="round"/>
  <line x1="82" y1="25" x2="90" y2="14" stroke="#CC5500" stroke-width="2.5" stroke-linecap="round"/>
  <line x1="96" y1="37" x2="107" y2="29" stroke="#CC5500" stroke-width="2.5" stroke-linecap="round"/>
  <line x1="105" y1="55" x2="118" y2="52" stroke="#CC5500" stroke-width="2.5" stroke-linecap="round"/>
  <line x1="105" y1="73" x2="118" y2="76" stroke="#CC5500" stroke-width="2.5" stroke-linecap="round"/>
  <line x1="96" y1="89" x2="107" y2="98" stroke="#CC5500" stroke-width="2.5" stroke-linecap="round"/>
  <line x1="82" y1="101" x2="90" y2="112" stroke="#CC5500" stroke-width="2.5" stroke-linecap="round"/>
  <line x1="65" y1="105" x2="65" y2="118" stroke="#CC5500" stroke-width="2.5" stroke-linecap="round"/>
  <line x1="48" y1="101" x2="40" y2="112" stroke="#CC5500" stroke-width="2.5" stroke-linecap="round"/>
  <line x1="34" y1="89" x2="25" y2="98" stroke="#CC5500" stroke-width="2.5" stroke-linecap="round"/>
  <line x1="25" y1="73" x2="12" y2="76" stroke="#CC5500" stroke-width="2.5" stroke-linecap="round"/>
  <line x1="25" y1="55" x2="12" y2="52" stroke="#CC5500" stroke-width="2.5" stroke-linecap="round"/>
  <line x1="34" y1="37" x2="23" y2="29" stroke="#CC5500" stroke-width="2.5" stroke-linecap="round"/>
  <line x1="48" y1="25" x2="40" y2="14" stroke="#CC5500" stroke-width="2.5" stroke-linecap="round"/>
  <circle cx="52" cy="52" r="3" fill="#CC5500" fill-opacity="0.5"/>
  <circle cx="70" cy="48" r="3" fill="#CC5500" fill-opacity="0.5"/>
  <circle cx="80" cy="62" r="3" fill="#CC5500" fill-opacity="0.5"/>
  <circle cx="55" cy="72" r="3" fill="#CC5500" fill-opacity="0.5"/>
  <circle cx="45" cy="58" r="14" fill="white"/>
  <circle cx="45" cy="58" r="9" fill="#222"/>
  <circle cx="42" cy="55" r="3.5" fill="white"/>
  <path d="M28 70 Q33 76 40 73" fill="none" stroke="#993300" stroke-width="2" stroke-linecap="round"/>
</svg>
